<svg width="48" height="25" viewBox="0 0 48 25" fill="none" xmlns="http://www.w3.org/2000/svg">
<path fill-rule="evenodd" clip-rule="evenodd" d="M25.5843 20.5144C24.9695 15.0287 24.9695 9.49572 25.5843 4.01C25.7734 2.54399 26.5301 1.36173 27.8069 0.605077C29.0838 -0.104282 30.5025 -0.198863 31.8266 0.368624C36.934 2.59128 41.7104 5.33414 46.1557 8.64449C47.3379 9.54301 48 10.7726 48 12.2386C48 13.7519 47.3379 14.9814 46.1557 15.88C41.7104 19.1903 36.934 21.9332 31.8266 24.1558C30.5025 24.7233 29.0838 24.6287 27.8069 23.9194C26.5301 23.1627 25.7734 21.9804 25.5843 20.5144ZM29.9823 16.7312C29.6512 13.7519 29.6512 10.7726 29.9823 7.79325C30.0769 7.0366 30.5025 6.37454 31.1645 5.99621C31.8739 5.61788 32.6306 5.57059 33.3399 5.85434C36.0828 7.08389 38.6365 8.5499 41.0483 10.2997C41.6631 10.7726 42.0414 11.4819 42.0414 12.2386C42.0414 13.0425 41.6631 13.7519 41.0483 14.2248C38.6365 15.9745 36.0828 17.4405 33.3399 18.6701C32.6306 18.9538 31.8739 18.9066 31.1645 18.5282C30.5025 18.1499 30.0769 17.4878 29.9823 16.7312Z" fill="#F7A706"/>
<path d="M17.4502 17.5351C18.3961 16.6366 19.9094 16.6366 20.8079 17.5351C21.7537 18.4809 21.7064 19.9942 20.8079 20.8927C19.6729 22.0277 18.3488 22.9262 16.8355 23.541C15.4167 24.1085 13.8562 24.4395 12.201 24.4395C8.84335 24.4395 5.76946 23.1154 3.59409 20.8927C1.37143 18.6701 0 15.6435 0 12.2385C0 8.8809 1.37143 5.8543 3.59409 3.63164C5.76946 1.40898 8.84335 0.0848389 12.201 0.0848389C13.8089 0.0848389 15.4167 0.368583 16.8355 0.983361C18.3488 1.59814 19.6729 2.49666 20.8079 3.63164C21.7064 4.53016 21.7537 6.04346 20.8079 6.98927C19.9094 7.88779 18.3961 7.88779 17.4502 6.98927C16.7882 6.27991 15.9369 5.75972 15.0384 5.38139C14.1872 5.00307 13.2414 4.8139 12.201 4.8139C10.1202 4.8139 8.27586 5.66513 6.95172 6.98927C5.5803 8.3607 4.77635 10.205 4.77635 12.2385C4.77635 14.3193 5.5803 16.1637 6.95172 17.5351C8.27586 18.8592 10.1202 19.7105 12.201 19.7105C13.2414 19.7105 14.1872 19.5213 15.0384 19.143C15.9369 18.7646 16.7882 18.2444 17.4502 17.5351Z" fill="#F7A706"/>
<path d="M20.9025 9.73218H13.2415C11.8833 9.73218 10.7823 10.8332 10.7823 12.1913C10.7823 13.5494 11.8833 14.6504 13.2415 14.6504H20.9025C22.2607 14.6504 23.3617 13.5494 23.3617 12.1913C23.3617 10.8332 22.2607 9.73218 20.9025 9.73218Z" fill="#F7A706"/>
</svg>
