<svg width="56" height="350" viewBox="0 0 56 350" fill="none" xmlns="http://www.w3.org/2000/svg">
<path fill-rule="evenodd" clip-rule="evenodd" d="M0 0C19.7037 8.97273 38.3704 19.671 56 31.7497V93.1783C38.3704 105.257 19.7037 115.955 0 124.928V0Z" fill="#515151" fill-opacity="0.2"/>
<path fill-rule="evenodd" clip-rule="evenodd" d="M25.5182 258.811C18.1606 196.425 18.1606 134.039 25.5182 71.6536C27.2701 55.1093 36.3796 42.0117 51.0949 33.3949C52.8467 32.7055 54.2482 31.6715 56 30.9822V299.827C54.2482 299.138 52.8467 298.104 51.0949 297.07C36.3796 288.798 27.2701 275.355 25.5182 258.811Z" fill="#515151" fill-opacity="0.2"/>
<path fill-rule="evenodd" clip-rule="evenodd" d="M0 53.9689C19.0123 63.9902 37.679 74.7027 56 86.1063V225.714C37.679 237.118 19.0123 247.83 0 257.851V53.9689Z" fill="#515151" fill-opacity="0.4"/>
<path fill-rule="evenodd" clip-rule="evenodd" d="M0 141.406C3.45679 136.914 7.95062 133.113 13.1358 130.003C25.9259 122.747 39.7531 122.056 52.8889 127.584L56 128.966V350.798H2.41975C1.72839 349.761 0.691358 348.725 0 348.033V141.406Z" fill="#515151" fill-opacity="0.6"/>
<path fill-rule="evenodd" clip-rule="evenodd" d="M0 185.893C19.0123 195.227 37.679 204.907 56 215.624V350.798H0V185.893Z" fill="#515151" fill-opacity="0.8"/>
</svg>
