<svg width="110" height="26" viewBox="0 0 110 26" fill="none" xmlns="http://www.w3.org/2000/svg">
<path fill-rule="evenodd" clip-rule="evenodd" d="M25.5843 21.2522C24.9695 15.7665 24.9695 10.2335 25.5843 4.7478C25.7734 3.28179 26.5301 2.09952 27.8069 1.34287C29.0838 0.633511 30.5025 0.53893 31.8266 1.10642C36.934 3.32908 41.7104 6.07193 46.1557 9.38228C47.3379 10.2808 48 11.5104 48 12.9764C48 14.4897 47.3379 15.7192 46.1557 16.6177C41.7104 19.9281 36.934 22.6709 31.8266 24.8936C30.5025 25.4611 29.0838 25.3665 27.8069 24.6572C26.5301 23.9005 25.7734 22.7182 25.5843 21.2522ZM29.9823 17.469C29.6512 14.4897 29.6512 11.5104 29.9823 8.53105C30.0769 7.7744 30.5025 7.11233 31.1645 6.734C31.8739 6.35568 32.6306 6.30839 33.3399 6.59213C36.0828 7.82169 38.6365 9.2877 41.0483 11.0375C41.6631 11.5104 42.0414 12.2197 42.0414 12.9764C42.0414 13.7803 41.6631 14.4897 41.0483 14.9626C38.6365 16.7123 36.0828 18.1783 33.3399 19.4079C32.6306 19.6916 31.8739 19.6443 31.1645 19.266C30.5025 18.8877 30.0769 18.2256 29.9823 17.469Z" fill="#F7A706"/>
<path d="M17.4502 18.2729C18.3961 17.3744 19.9094 17.3744 20.8079 18.2729C21.7537 19.2187 21.7064 20.732 20.8079 21.6305C19.6729 22.7655 18.3488 23.664 16.8355 24.2788C15.4167 24.8463 13.8562 25.1773 12.201 25.1773C8.84335 25.1773 5.76946 23.8532 3.59409 21.6305C1.37143 19.4079 0 16.3813 0 12.9763C0 9.61869 1.37143 6.59209 3.59409 4.36943C5.76946 2.14677 8.84335 0.822632 12.201 0.822632C13.8089 0.822632 15.4167 1.10638 16.8355 1.72115C18.3488 2.33593 19.6729 3.23445 20.8079 4.36943C21.7064 5.26795 21.7537 6.78125 20.8079 7.72706C19.9094 8.62559 18.3961 8.62559 17.4502 7.72706C16.7882 7.0177 15.9369 6.49751 15.0384 6.11918C14.1872 5.74086 13.2414 5.5517 12.201 5.5517C10.1202 5.5517 8.27586 6.40293 6.95172 7.72706C5.5803 9.09849 4.77635 10.9428 4.77635 12.9763C4.77635 15.0571 5.5803 16.9014 6.95172 18.2729C8.27586 19.597 10.1202 20.4482 12.201 20.4482C13.2414 20.4482 14.1872 20.2591 15.0384 19.8808C15.9369 19.5024 16.7882 18.9822 17.4502 18.2729Z" fill="#F7A706"/>
<path d="M20.9025 10.4699H13.2415C11.8833 10.4699 10.7823 11.5709 10.7823 12.9291C10.7823 14.2872 11.8833 15.3882 13.2415 15.3882H20.9025C22.2607 15.3882 23.3617 14.2872 23.3617 12.9291C23.3617 11.5709 22.2607 10.4699 20.9025 10.4699Z" fill="#F7A706"/>
<path d="M54.144 21.524C53.7493 21.524 53.4453 21.4173 53.232 21.204C53.0293 21.0013 52.928 20.6973 52.928 20.292V11.732C52.928 11.3373 53.0293 11.0387 53.232 10.836C53.4453 10.6227 53.7387 10.516 54.112 10.516C54.5067 10.516 54.8053 10.6227 55.008 10.836C55.2107 11.0387 55.312 11.3373 55.312 11.732V12.82L55.136 12.196C55.296 11.684 55.616 11.2733 56.096 10.964C56.5867 10.644 57.1467 10.484 57.776 10.484C58.4587 10.484 59.056 10.6493 59.568 10.98C60.0907 11.3107 60.496 11.78 60.784 12.388C61.072 12.996 61.216 13.7213 61.216 14.564C61.216 15.4067 61.072 16.1373 60.784 16.756C60.496 17.3747 60.096 17.8493 59.584 18.18C59.072 18.5107 58.4693 18.676 57.776 18.676C57.1573 18.676 56.608 18.5267 56.128 18.228C55.648 17.9187 55.3227 17.5187 55.152 17.028H55.344V20.292C55.344 20.6973 55.2373 21.0013 55.024 21.204C54.8213 21.4173 54.528 21.524 54.144 21.524ZM57.056 16.868C57.3973 16.868 57.696 16.7827 57.952 16.612C58.2187 16.4413 58.4213 16.1907 58.56 15.86C58.7093 15.5187 58.784 15.0867 58.784 14.564C58.784 13.7853 58.624 13.2147 58.304 12.852C57.984 12.4787 57.568 12.292 57.056 12.292C56.7147 12.292 56.4107 12.372 56.144 12.532C55.888 12.692 55.6853 12.9427 55.536 13.284C55.3867 13.6147 55.312 14.0413 55.312 14.564C55.312 15.3427 55.472 15.924 55.792 16.308C56.112 16.6813 56.5333 16.868 57.056 16.868ZM65.3496 18.676C64.7736 18.676 64.2563 18.564 63.7976 18.34C63.339 18.116 62.9816 17.812 62.7256 17.428C62.4696 17.044 62.3416 16.612 62.3416 16.132C62.3416 15.556 62.491 15.1027 62.7896 14.772C63.0883 14.4307 63.5736 14.1907 64.2456 14.052C64.9176 13.9027 65.8083 13.828 66.9176 13.828H67.7656V15.076H66.9336C66.3896 15.076 65.947 15.108 65.6056 15.172C65.275 15.2253 65.035 15.3213 64.8856 15.46C64.747 15.5987 64.6776 15.7907 64.6776 16.036C64.6776 16.3347 64.779 16.58 64.9816 16.772C65.195 16.964 65.499 17.06 65.8936 17.06C66.203 17.06 66.475 16.9907 66.7096 16.852C66.955 16.7027 67.147 16.5053 67.2856 16.26C67.4243 16.004 67.4936 15.716 67.4936 15.396V13.556C67.4936 13.0867 67.387 12.756 67.1736 12.564C66.9603 12.3613 66.5976 12.26 66.0856 12.26C65.7976 12.26 65.483 12.2973 65.1416 12.372C64.811 12.436 64.443 12.548 64.0376 12.708C63.803 12.8147 63.595 12.8413 63.4136 12.788C63.2323 12.724 63.0936 12.6173 62.9976 12.468C62.9016 12.308 62.8536 12.1373 62.8536 11.956C62.8536 11.764 62.907 11.5827 63.0136 11.412C63.1203 11.2307 63.2963 11.0973 63.5416 11.012C64.043 10.8093 64.5123 10.6707 64.9496 10.596C65.3976 10.5213 65.8083 10.484 66.1816 10.484C67.003 10.484 67.675 10.6067 68.1976 10.852C68.731 11.0867 69.131 11.4547 69.3976 11.956C69.6643 12.4467 69.7976 13.0813 69.7976 13.86V17.412C69.7976 17.8067 69.7016 18.1107 69.5096 18.324C69.3176 18.5373 69.0403 18.644 68.6776 18.644C68.315 18.644 68.0323 18.5373 67.8296 18.324C67.6376 18.1107 67.5416 17.8067 67.5416 17.412V16.82L67.6536 16.916C67.5896 17.2787 67.451 17.5933 67.2376 17.86C67.035 18.116 66.7736 18.3187 66.4536 18.468C66.1336 18.6067 65.7656 18.676 65.3496 18.676ZM72.8479 18.644C72.4425 18.644 72.1332 18.5373 71.9199 18.324C71.7065 18.1107 71.5999 17.8067 71.5999 17.412V11.732C71.5999 11.3373 71.7012 11.0387 71.9039 10.836C72.1172 10.6227 72.4105 10.516 72.7839 10.516C73.1679 10.516 73.4612 10.6227 73.6639 10.836C73.8665 11.0387 73.9679 11.3373 73.9679 11.732V12.564H73.8079C73.9359 11.924 74.2185 11.428 74.6559 11.076C75.0932 10.724 75.6585 10.5267 76.3519 10.484C76.6185 10.4627 76.8212 10.532 76.9599 10.692C77.1092 10.8413 77.1892 11.092 77.1999 11.444C77.2212 11.7747 77.1519 12.036 76.9919 12.228C76.8425 12.42 76.5865 12.5373 76.2239 12.58L75.8559 12.612C75.2479 12.6653 74.7945 12.8413 74.4959 13.14C74.2079 13.4387 74.0639 13.8707 74.0639 14.436V17.412C74.0639 17.8067 73.9572 18.1107 73.7439 18.324C73.5412 18.5373 73.2425 18.644 72.8479 18.644ZM79.4096 18.644C79.015 18.644 78.711 18.5373 78.4976 18.324C78.295 18.1107 78.1936 17.8067 78.1936 17.412V8.308C78.1936 7.90267 78.295 7.59867 78.4976 7.396C78.711 7.18267 79.015 7.076 79.4096 7.076C79.7936 7.076 80.087 7.18267 80.2896 7.396C80.503 7.59867 80.6096 7.90267 80.6096 8.308V13.892H80.6416L82.9616 11.316C83.1963 11.0493 83.4096 10.852 83.6016 10.724C83.8043 10.5853 84.071 10.516 84.4016 10.516C84.7323 10.516 84.983 10.6013 85.1536 10.772C85.335 10.9427 85.4256 11.1507 85.4256 11.396C85.4363 11.6307 85.335 11.8707 85.1216 12.116L82.6736 14.852V13.94L85.3936 17.076C85.5963 17.3213 85.6816 17.5667 85.6496 17.812C85.6283 18.0573 85.5216 18.26 85.3296 18.42C85.1376 18.5693 84.8923 18.644 84.5936 18.644C84.231 18.644 83.9376 18.5747 83.7136 18.436C83.5003 18.2973 83.2816 18.084 83.0576 17.796L80.6416 15.108H80.6096V17.412C80.6096 18.2333 80.2096 18.644 79.4096 18.644ZM88.3315 18.628C87.9368 18.628 87.6328 18.516 87.4195 18.292C87.2168 18.0573 87.1155 17.732 87.1155 17.316V11.844C87.1155 11.4173 87.2168 11.092 87.4195 10.868C87.6328 10.6333 87.9368 10.516 88.3315 10.516C88.7155 10.516 89.0088 10.6333 89.2115 10.868C89.4248 11.092 89.5315 11.4173 89.5315 11.844V17.316C89.5315 17.732 89.4302 18.0573 89.2275 18.292C89.0248 18.516 88.7262 18.628 88.3315 18.628ZM88.3315 9.204C87.8835 9.204 87.5368 9.10267 87.2915 8.9C87.0568 8.68667 86.9395 8.388 86.9395 8.004C86.9395 7.60933 87.0568 7.31067 87.2915 7.108C87.5368 6.89467 87.8835 6.788 88.3315 6.788C88.7795 6.788 89.1208 6.89467 89.3555 7.108C89.5902 7.31067 89.7075 7.60933 89.7075 8.004C89.7075 8.388 89.5902 8.68667 89.3555 8.9C89.1208 9.10267 88.7795 9.204 88.3315 9.204ZM92.6128 18.644C92.2181 18.644 91.9141 18.5373 91.7008 18.324C91.4981 18.1107 91.3968 17.8067 91.3968 17.412V11.732C91.3968 11.3373 91.4981 11.0387 91.7008 10.836C91.9141 10.6227 92.2074 10.516 92.5807 10.516C92.9648 10.516 93.2581 10.6227 93.4608 10.836C93.6634 11.0387 93.7648 11.3373 93.7648 11.732V12.644L93.5888 12.116C93.8341 11.5933 94.1968 11.1933 94.6768 10.916C95.1674 10.628 95.7221 10.484 96.3408 10.484C96.9701 10.484 97.4874 10.6067 97.8928 10.852C98.2981 11.0867 98.6021 11.4493 98.8048 11.94C99.0074 12.42 99.1088 13.0333 99.1088 13.78V17.412C99.1088 17.8067 99.0021 18.1107 98.7888 18.324C98.5861 18.5373 98.2874 18.644 97.8928 18.644C97.5088 18.644 97.2101 18.5373 96.9968 18.324C96.7941 18.1107 96.6928 17.8067 96.6928 17.412V13.892C96.6928 13.348 96.5914 12.9587 96.3888 12.724C96.1968 12.4787 95.8981 12.356 95.4928 12.356C94.9808 12.356 94.5701 12.516 94.2608 12.836C93.9621 13.156 93.8128 13.5827 93.8128 14.116V17.412C93.8128 18.2333 93.4128 18.644 92.6128 18.644ZM104.688 21.556C104.112 21.556 103.558 21.508 103.024 21.412C102.502 21.316 102.038 21.172 101.632 20.98C101.387 20.8733 101.211 20.7347 101.104 20.564C101.008 20.3933 100.966 20.212 100.976 20.02C100.998 19.828 101.062 19.6573 101.168 19.508C101.286 19.3587 101.43 19.252 101.6 19.188C101.771 19.1347 101.952 19.1507 102.144 19.236C102.614 19.4493 103.046 19.588 103.44 19.652C103.846 19.716 104.192 19.748 104.48 19.748C105.163 19.748 105.675 19.5933 106.016 19.284C106.358 18.9747 106.528 18.5 106.528 17.86V16.644H106.672C106.512 17.1347 106.182 17.5347 105.68 17.844C105.179 18.1533 104.624 18.308 104.016 18.308C103.312 18.308 102.699 18.148 102.176 17.828C101.654 17.4973 101.248 17.0387 100.96 16.452C100.672 15.8547 100.528 15.1667 100.528 14.388C100.528 13.8013 100.608 13.268 100.768 12.788C100.939 12.308 101.174 11.8973 101.472 11.556C101.782 11.2147 102.15 10.9533 102.576 10.772C103.014 10.58 103.494 10.484 104.016 10.484C104.646 10.484 105.2 10.6387 105.68 10.948C106.171 11.2467 106.496 11.6413 106.656 12.132L106.496 12.644V11.732C106.496 11.3373 106.598 11.0387 106.8 10.836C107.014 10.6227 107.312 10.516 107.696 10.516C108.08 10.516 108.374 10.6227 108.576 10.836C108.779 11.0387 108.88 11.3373 108.88 11.732V17.588C108.88 18.9 108.518 19.8867 107.792 20.548C107.078 21.22 106.043 21.556 104.688 21.556ZM104.736 16.5C105.099 16.5 105.408 16.4147 105.664 16.244C105.931 16.0733 106.139 15.8333 106.288 15.524C106.438 15.204 106.512 14.8253 106.512 14.388C106.512 13.7267 106.347 13.2147 106.016 12.852C105.696 12.4787 105.27 12.292 104.736 12.292C104.374 12.292 104.059 12.3773 103.792 12.548C103.526 12.708 103.318 12.948 103.168 13.268C103.03 13.5773 102.96 13.9507 102.96 14.388C102.96 15.0493 103.12 15.5667 103.44 15.94C103.76 16.3133 104.192 16.5 104.736 16.5Z" fill="#262626"/>
</svg>
